<?xml version="1.0" encoding="utf-8"?>
<!-- Generator: Adobe Illustrator 26.1.0, SVG Export Plug-In . SVG Version: 6.00 Build 0)  -->
<svg version="1.1" id="Layer_1" xmlns="http://www.w3.org/2000/svg" xmlns:xlink="http://www.w3.org/1999/xlink" x="0px" y="0px"
	 viewBox="0 0 887.8 595.3" style="enable-background:new 0 0 887.8 595.3;" xml:space="preserve">
<style type="text/css">
	.st0{fill:#278342;}
</style>
<g id="Layer_2_00000061449086140880814690000013773508097464441784_">
</g>
<g id="Layer_3">
</g>
<path class="st0" d="M767.3,361.2c0-0.2-0.8-0.2-1.3-0.2c-1.3,0-2.1-0.6-3.2-1.9l-0.2-0.2v-0.2c0.4-2.7,0.6-5.7,0.8-8.8
	c0.8-14.9-0.2-75.6-13.9-90.3v-0.2c-3.2-4.4-12.2-9.9-22.5-13.9c-7.8-2.9-15.8-4.4-23.6-5.3l0,0v-1.1c4-0.6,8.2-0.6,12.2-0.2
	c-0.8-0.8-1.7-1.9-2.5-2.9c-13.7-14.9-45.5-50.3-77.2-59.8c-25-7.4-78.3-11.8-128.4-11.8c0,0,0.2-1.5,0.8-3.4
	c0.8-3.8,1.3-5.3,0.6-6.1c-0.4-0.6-1.1-0.8-2.1-0.8h-42.9c-2.3,0-4.2,1.7-5.1,4l-1.7,5.7c-0.2,0.4-0.6,2.1-0.6,2.5
	c-0.4,0-0.8,0-1.1,0c-45.9,2.7-86.9,8.8-105.9,18.5c-19.6,9.9-53.5,32.2-69.9,46.9l-0.8,0.8l-0.2-1.1c0,0-0.2-2.1-2.9-2.3
	c-3.6-0.4-13.3,0-19.4,3.6c-6.1,3.8-4.8,13.3-4.8,13.5v0.4l-0.4,0.2c0,0-8,2.1-17.5,4.4c-0.2,0-21.5,5.9-42.1,18.9
	c-20.6,12.8-20.6,31.1-20.6,31.4v4.2l-1.5-4.2c0-0.2-7.2-21.7,20.6-37.5c-10.1,1.1-44.6,5.9-56.4,27.6l-0.2,0.2
	c0,0-8.6,8.2-10.3,46.1c-0.6,16.2-1.1,27.6-1.3,36c-0.4,11.4-0.4,16.4-1.3,19.4c-1.1,4.2-0.6,5.3,1.7,9l0.6,0.8
	c2.5,4.4,3.2,5.1,3.2,5.1l0.2,0.2l-0.2,0.4c-0.4,0.8-0.4,1.9,0,2.7c0.4,0.8,1.3,1.5,2.3,1.5h6.3l0.2,0.2
	c11.4,16.8,34.5,26.9,60.4,26.3c23.6-0.6,43.6-10.5,52.6-25.5l0.2-0.2h0.4l173,1.1l0.2,0.2c9.7,16.4,23.8,25.9,38.3,25.9h41.2
	c16,0,30.5-10.7,40.4-29.5l0.2-0.2h0.4c44.6-2.1,89.9-5.9,134.3-11.2h0.4l0.2,0.4c4.6,12.4,10.5,19.4,16.8,19.4h41
	c10.3,0,19.8-19.2,22.7-46.5v-0.4h6.7c1.1,0,1.7,0,1.9-0.2c0.4-0.4,0.4-2.5,0.4-5.5c0-1.9,0-3.2,0.2-4.2
	C767.6,362.3,767.6,361.2,767.3,361.2z M722.1,250.7h0.2l0.4,1.5h-0.2c-45.7,13.7-76.6,19.2-110.3,19.2c-17,0-34.5-1.5-54.7-2.9l0,0
	c-14.7-1.3-31.6-2.5-51.3-3.6H506v-1.7h0.2c40.8-2.1,68-1.3,92-0.4C636.7,264,664.4,265,722.1,250.7z M673.9,312.6
	c0.2-1.3,0.2-2.3,0.4-3.4c1.9-14.3,1.3-27.8,1.3-27.8l-0.2-5.3l1.9,5.1c0,0.2,1.3,4,1.5,21c0.2,28.6-2.9,62.1-30.1,68.8
	c-18.3,4.6-80,12.4-82.7,12.8h-0.2v-0.2l-0.2-1.3h0.2c2.5-0.4,64-11.6,81.7-15.6C667.8,362,671.4,332.2,673.9,312.6z M650.1,278.9
	L650.1,278.9c1.1-0.6,12.2-2.3,16.2-0.8c0.8,0.2,1.5,0.8,1.7,1.5c0.6,1.7,0.4,2.9-0.4,4c-1.1,1.3-3.4,2.1-6.7,2.1
	c-1.1,0-2.1,0-3.2-0.2c-0.8,0-8-1.9-8.4-4.4C649.1,280.4,649.1,279.6,650.1,278.9z M543.4,322.1l-2.3-4.2
	c-8-14.5-19.4-24.2-31.8-26.9l-2.9-0.6l2.9-0.8c13.3-4,25.5,2.9,30.7,17.7c0.8,2.5,1.5,5.1,2.1,7.8c0.2,0.8,0.2,1.7,0.4,2.5
	L543.4,322.1z M550.8,249.7h19.2c4.2,0,4.8-0.4,5.9-3.4c1.3-3.4,4.8-7.2,5.1-7.2l3.2-3.2l-1.9,4.2c-0.4,0.8-3.4,7.8-3.8,10.3
	c0,0.6-0.4,1.1-1.1,1.5c-1.5,1.1-4.8,1.3-7.2,1.3c-4.4,0-9.9-0.6-13.7-1.9L550.8,249.7z M616.9,184.4c4.4-4,30.9,14.5,31.4,14.7
	c9,7.2,32.2,30.1,33.9,32.2c0.6,0.8,1.5,2.1,1.1,2.9c-0.4,0.8-1.5,1.3-3.6,1.7c-4.4,0.6-44.6,3.2-46.7,3.2l0,0c-0.4,0-0.8,0-1.1,0
	c-2.1,0-4-0.2-5.1-2.7c-0.4-1.3-2.7-12-5.3-23.4c-2.1-9.5-4.2-19.4-4.8-21.3v-0.2C615.4,187.4,615,185.9,616.9,184.4z M573.7,179.8
	c6.7-1.1,33-2.7,36.4,5.1c1.5,3.2,12.4,49.5,12.6,51.6c0,1.1,0,2.1-0.6,2.9c-0.6,0.6-1.9,1.1-3.8,1.1h-12l0.2-0.6
	c1.1-6.9,1.9-13.7-4-15.8c-11.6-2.5-26.5-3.4-33.3,2.3c-6.9,5.9-9.7,16.8-9.7,17v0.4h-0.4c0,0-6.9,0.6-10.9,1.1c-0.4,0-0.8,0-1.3,0
	c-1.9,0-3.4-0.4-4.2-1.5c-1.1-1.3-1.3-3.2-0.6-5.9c1.5-5.7,11.6-34.1,18.3-46.9C564.7,182.3,569.5,180.6,573.7,179.8z M284.2,237.3
	c2.3-1.7,5.7-4.4,9.5-7.4c18.7-14.5,53.5-41.9,72.4-44.8c47.8-13,150.3-10.7,177.2-5.5c3.6,0.4,4.6,1.1,5.3,2.3
	c0.8,1.5,0,2.9-1.7,5.9c-0.4,0.8-1.1,1.9-1.5,2.7c-2.3,4.4-7.4,17.9-11.6,28.8c-2.9,7.6-5.5,13.9-6.5,16.2c-2.5,5.5-4.4,5.5-7.8,5.5
	c-0.4,0-0.8,0-1.3,0c-2.3,0-4.6,0-13.7-0.4c-7.8-0.2-20.8-0.8-42.9-1.5c-34.9-1.3-101.4,1.3-141.2,2.7c-14.5,0.4-25,0.8-28.4,0.8
	c-8.2,0-10.1-0.6-10.3-1.7C280.8,239.8,282.1,238.7,284.2,237.3z M203.6,275.6c0.4,0,39.1-5.1,79.8-4.2s65.7,1.7,65.9,1.7h0.6v0.6
	c0,0.4-0.8,5.1-17,5.3l0,0c-3.8,0-8.6,0-14.1,0c-18.5,0-44.2,0-64.4,0.6l-6.7,0.2c-8.4,0.2-15.8,0.6-22.1,0.6
	c-11.2,0-18.7-0.8-22.3-3.6l-1.1-0.8L203.6,275.6z M151.4,402l-23.1-2.1l-3.2-5.3l26.5,3.6L151.4,402z M127.2,335.1
	c0-4.2,3.4-7.6,7.6-7.6s7.6,3.4,7.6,7.6s-3.4,7.6-7.6,7.6S127.2,339.3,127.2,335.1z M152,326.5c-6.1,0-19.2-2.3-22.5-3.2
	c-0.6-0.2-1.1-0.6-1.5-1.1c-2.1-4.2,2.5-19.4,5.1-26.1l0.2-0.4l41.9,14.9c8.2,3.6,132.4-1.7,161-4.8l108-13l-0.2,0.8
	c-0.2,1.1-6.3,25.3-6.9,27.6c-0.4,1.5-10.9,2.3-67.1,3.2c-5.5,0-9.5,0.2-11.6,0.2c-8.4,0.2-22.1-8.6-27.8-12.4
	c-1.5,0.2-3.2,0.4-4.6,0.4c-4.8,0.6-10.1,1.1-14.7,1.1L182.7,316c-2.1,0-4,0-5.5-0.2c-1.1-0.2-2.1-0.2-2.9-0.6l-6.9-1.3
	c-2.7,3.4-10.9,12-12.8,12.4C153.7,326.5,152.8,326.5,152,326.5z M431.3,345.2c0,6.9-5.7,12.6-12.6,12.6s-12.6-5.7-12.6-12.6
	s5.7-12.6,12.6-12.6C425.6,332.4,431.3,338.1,431.3,345.2z M195.8,375.3L195.8,375.3c-1.1-0.2-2.1-0.4-3.4-0.6l-7.2-1.5l114.7-2.1
	l-7.2,1.7c-1.1,0.2-2.1,0.4-3.2,0.6L195.8,375.3z M261.2,378h-0.6c-5.7,0.4-11.6,0.8-17,1.1h-1.1c-1.5,0-2.7,0-4.2,0
	c-4.4,0-9-0.2-13.5-0.4h-0.6v-1.5h0.6l36.2-0.6L261.2,378z M178.5,371.1L178.5,371.1c-0.6-0.2-1.1-0.4-1.5-0.6l-2.3-1.5l135.7-2.5
	l-2.7,1.5c-0.4,0.2-0.8,0.4-1.3,0.6h-0.2L178.5,371.1z M172.2,366.7l-0.2-0.2c-0.2-0.2-0.4-0.4-0.6-0.6l-1.3-1.3h1.7l144.2-2.5
	l-1.5,1.3c-0.2,0.2-0.4,0.4-0.8,0.6l-0.2,0.2h-0.2L172.2,366.7z M168.6,362l-0.2-0.4c-0.2-0.2-0.2-0.4-0.4-0.6l-0.6-1.3h1.3
	l151.5-2.7l-1.7,2.3H318L168.6,362z M166.7,357.6l-0.2-2.1h0.8l154.3-2.7l-0.4,2.1h-0.6L166.7,357.6z M321.4,350.3L166.3,353v-0.8
	c0-0.2,0-0.4,0-0.6v-0.8h0.8l155.3-2.7l-0.2,1.1c0,0.2,0,0.4,0,0.6l-0.2,0.6H321.4z M166.1,348.4v-2.1h0.8l155.9-2.7l-0.2,2.1h-0.2
	L166.1,348.4z M322.7,341l-156.6,2.9v-2.1h0.8l156.4-2.7l-0.2,2.1L322.7,341z M322.7,336.6l-156.6,2.7l0.2-2.1h0.6l156.6-2.7v2.1
	H322.7z M322.9,332l-156.4,2.7l0.2-2.1h0.6l156.2-2.7v0.8c0,0.2,0,0.4,0,0.6v0.8L322.9,332z M320.4,320.6l0.2,0.4
	c0.2,0.2,0.2,0.4,0.4,0.6l0.8,1.1h-1.5L168,325.4l1.9-2.3h0.4L320.4,320.6z M171.8,321l1.9-2.3h0.4l142.3-2.5l2.3,2.1h-1.9
	L171.8,321z M168.2,328l154.5-2.7l0.2,0.6c0,0.2,0.2,0.4,0.2,0.6l0.2,0.8l-156.2,2.7l0.2-0.8c0-0.2,0-0.4,0.2-0.6l0.2-0.6H168.2z
	 M156,405.4l2.5-1.1c0.2,0,12.2-5.1,24.2-5.1c2.5,0,8.8,0,17.7-0.2c34.5-0.4,98.7-1.3,107.7,0.4c11.4,2.1,21.3,5.9,21.3,6.1l2.7,1.1
	L156,405.4z M414.2,404.8c-0.6,1.9-1.3,2.3-4,2.3c-11.2,0.2-24.6,0.6-37.5,1.5c-2.5,0.2-4.8,0.2-6.7,0.2c-14.3,0-16.8-3.2-17-3.4
	l-0.6-0.8h1.1c0.6,0,58.3-2.7,61.5-3.2c1.7-0.2,2.7,0,3.4,0.8C414.6,403.1,414.4,404.1,414.2,404.8z M458.8,392.1l-0.2,1.1H458
	c-3.8,0.2-37.5,1.9-62.1,1.9c-11.6,0-19.4-0.4-23.1-1.1l-6.9-1.3l6.9-0.2c0.6,0,55.1-2.3,66.3-3.6l10.7-1.3
	c2.7-29.5,15.2-89.4,41.9-105.6c8-4.8,16.6-5.5,25.9-2.1h0.2l-0.4,1.5h-0.2c-7.8-1.9-14.9-0.8-21.5,3.6
	C468.9,302.5,461.4,369.8,458.8,392.1z M502,426.9c-5.1,0-9.9-1.3-14.5-3.8l-0.2-0.2l0.6-1.5h0.2c3.2,1.3,6.5,1.9,9.9,1.9
	c21.5,0,38.9-26.1,38.9-58.1s-17.5-58.1-38.9-58.1c-3.4,0-6.7,0.6-9.9,1.9h-0.2l-0.6-1.5l0.2-0.2c4.6-2.5,9.5-3.8,14.5-3.8
	c23.1,0,41.9,27.6,41.9,61.5S524.9,426.9,502,426.9z M694.5,395.7L694.5,395.7l-12-1.9c-6.3-0.2-22.3,1.3-36.4,2.5h-0.4
	c-6.1,0.6-12,1.1-16.6,1.5c-15.2,1.1-81.7,10.1-84.4,10.5l-1.5,0.2l0.6-1.3c0.2-0.6,0.6-1.3,0.8-1.9l0.2-0.4h0.4
	c20.2-2.9,87.8-12.8,112.2-14.7c24.4-1.9,37.9-1.9,43.1,4l1.1,1.3L694.5,395.7z M707.8,382.7v-0.2c-3.4-12.2-4.6-27.8-3.6-43.8
	c2.5-34.9,15.6-62.9,29.5-62.9c0.2,0,0.4,0,0.6,0c8.4,0.6,15.2,10.7,18.9,28v0.2l-1.5,0.4v-0.2c-3.8-12.6-9.3-19.6-15.8-20.2
	c-0.2,0-0.4,0-0.6,0c-12.8,0-25.5,27.8-27.8,61.9c-0.8,12.8-0.2,25.3,1.7,36v0.2L707.8,382.7z M736.2,407.7c-2.7,0-5.3-1.3-7.6-3.8
	l-3.8-4l4.6,2.7c1.1,0.6,2.3,1.1,3.4,1.1c9.7,0,17.7-22.1,17.7-49.2c0-27.1-8-49.2-17.7-49.2c-1.1,0-2.3,0.4-3.4,0.8l-4.8,2.7l3.8-4
	c2.3-2.5,5.1-3.8,7.6-3.8c11.4,0,20.2,23.4,20.2,53.5C756.4,383.9,747.3,407.7,736.2,407.7z"/>
</svg>
