<?xml version="1.0" encoding="utf-8"?>
<!-- Generator: Adobe Illustrator 26.1.0, SVG Export Plug-In . SVG Version: 6.00 Build 0)  -->
<svg version="1.1" xmlns="http://www.w3.org/2000/svg" xmlns:xlink="http://www.w3.org/1999/xlink" x="0px" y="0px"
	 viewBox="0 0 850.4 850.4" style="enable-background:new 0 0 850.4 850.4;" xml:space="preserve">
<style type="text/css">
	.st0{fill:#278342;}
	.st1{fill:#FFFFFF;}
	.st2{fill:none;}
</style>
<g id="Layer_2">
</g>
<g id="Layer_3">
</g>
<g id="Layer_4">
	<rect x="0" class="st0" width="850.4" height="850.4"/>
	<g>
		<g>
			<path class="st1" d="M211.5,481.1v19.6c0,23.5-14.3,37-41.7,37s-41.7-13.5-41.7-37v-76.5c0-23.5,14.3-37,41.7-37
				s41.7,13.5,41.7,37v14.3H185v-15.8c0-10.5-5.6-14.5-14.5-14.5c-8.9,0-14.5,4-14.5,14.5v79.5c0,10.5,5.6,14.3,14.5,14.3
				c8.9,0,14.5-3.8,14.5-14.3v-21H211.5z"/>
			<path class="st1" d="M243.8,388.8h28v147.2h-28V388.8z"/>
			<path class="st1" d="M299.3,388.8h86.5v21h-29.3v126.1h-28V409.8h-29.3V388.8z"/>
			<path class="st1" d="M443.3,487.2L408,388.8h29.3l21.4,67.1l21.4-67.1h26.7l-35.4,98.4v48.8h-28V487.2z"/>
			<path class="st1" d="M568.8,453.9H608v46.7c0,23.5-14.3,37-41.7,37s-41.7-13.5-41.7-37v-76.5c0-23.5,14.3-37,41.7-37
				s41.7,13.5,41.7,37v14.3h-26.5v-15.8c0-10.5-5.6-14.5-14.5-14.5c-8.9,0-14.5,4-14.5,14.5v79.5c0,10.5,5.6,14.3,14.5,14.3
				c8.9,0,14.5-3.8,14.5-14.3V475h-12.7V453.9z"/>
			<path class="st1" d="M636.5,424.1c0-23.5,15-37,42.5-37c27.5,0,42.5,13.5,42.5,37v76.5c0,23.5-15,37-42.5,37
				c-27.5,0-42.5-13.5-42.5-37V424.1z M664.5,502.1c0,10.5,5.6,14.5,14.5,14.5c8.9,0,14.5-4,14.5-14.5v-79.5
				c0-10.5-5.6-14.5-14.5-14.5c-8.9,0-14.5,4-14.5,14.5V502.1z"/>
		</g>
		<path class="st1" d="M131.7,338.2c23.9,0,47.8,0,71.7,0c6.8,0,13.5,0,20.3,0c5.6,0,10.9-4.9,10.6-10.6
			c-0.3-5.7-4.7-10.6-10.6-10.6c-23.9,0-85.3,0-92,0c-5.6,0-10.9,4.9-10.6,10.6C121.4,333.3,125.8,338.2,131.7,338.2L131.7,338.2z"
			/>
		<path class="st1" d="M131.7,602.7c7.4,0,585.9,0,586.9,0c5.6,0,10.9-4.9,10.6-10.6c-0.3-5.7-4.7-10.6-10.6-10.6
			c-7.4,0-585.9,0-586.9,0c-5.6,0-10.9,4.9-10.6,10.6C121.4,597.9,125.8,602.7,131.7,602.7L131.7,602.7z"/>
		<path class="st1" d="M626.7,338.2c23.9,0,47.8,0,71.7,0c6.8,0,13.5,0,20.3,0c5.6,0,10.9-4.9,10.6-10.6
			c-0.3-5.7-4.7-10.6-10.6-10.6c-23.9,0-85.3,0-92,0c-5.6,0-10.9,4.9-10.6,10.6C616.3,333.3,620.7,338.2,626.7,338.2L626.7,338.2z"
			/>
		<path class="st1" d="M384.4,283.5c-3.9-0.2-7-3.1-8.3-4.7l-6,0.6c1.7,1.1,6.1,3.9,7.5,4.7c1.7,1.1,4.7,1,7.2,0.9
			c2.5-0.1,2.5-0.2,10.4-0.4c7.8-0.2,22.8-1.1,22.8-1.1l0.2-1C418.3,282.6,389.7,283.7,384.4,283.5z"/>
		<path class="st1" d="M281.7,279.9c-1,1.3-3.2,3.9-4.9,4c-2.2,0.3-8.9-0.7-8.9-0.7c1.5,1,8.6,2.3,9.9,1.9c1.2-0.4,4.3-4,5.2-5
			L281.7,279.9z"/>
		<path class="st2" d="M285.2,280.8l3.5,0.7c0.5,0.1,1,0.2,1.5,0.3c0.8,0.1,1.7,0.1,2.8,0.1l65-1.2c2.4,0,4.9-0.3,7.4-0.5
			c0.8-0.1,1.6-0.2,2.4-0.3c2.9,2,9.8,6.4,14,6.3c1,0,3.1-0.1,5.8-0.1c28.4-0.5,33.7-0.9,34-1.6c0.4-1.1,3.4-13.4,3.5-13.9l0.1-0.4
			l-54.6,6.6c-14.6,1.6-77.4,4.3-81.5,2.4l-21.2-7.5l-0.1,0.3c-1.3,3.4-3.7,11.1-2.6,13.2c0.2,0.3,0.4,0.5,0.7,0.6
			c1.7,0.4,8.3,1.6,11.4,1.6c0.5,0,0.9,0,1.2-0.1C279.6,286.9,283.7,282.5,285.2,280.8z"/>
		<polygon class="st2" points="265.5,324.4 277.2,325.5 277.4,323.5 263.9,321.7 		"/>
		<path class="st2" d="M405.9,296.6c0,3.5,2.9,6.4,6.4,6.4c3.5,0,6.4-2.9,6.4-6.4c0-3.5-2.9-6.4-6.4-6.4
			C408.8,290.2,405.9,293.1,405.9,296.6z"/>
		<path class="st2" d="M314.6,263.8c3.2,0,6.9-0.1,11.2-0.3l3.4-0.1c10.3-0.3,23.2-0.3,32.6-0.3c2.8,0,5.2,0,7.1,0h0
			c8.2,0,8.6-2.3,8.6-2.6l0-0.3l-0.3,0c-0.1,0-12.7-0.4-33.3-0.8c-20.6-0.4-40.2,2.1-40.4,2.1l-0.7,0.1l0.6,0.4
			C305.2,263.4,309,263.8,314.6,263.8z"/>
		<path class="st2" d="M348.7,310.7l3.6-0.8l-58,1l3.6,0.7c0.6,0.1,1.1,0.2,1.7,0.3l0,0l47.5-0.9
			C347.6,310.9,348.2,310.8,348.7,310.7z"/>
		<path class="st2" d="M359.2,306.2L359.2,306.2c0.2-0.2,0.4-0.3,0.5-0.4l0.8-0.7l-73,1.3l-0.9,0l0.6,0.6c0.1,0.1,0.2,0.2,0.3,0.3
			l0.1,0.1l71.4-1.3L359.2,306.2z"/>
		<path class="st2" d="M355.6,308.6c0.2-0.1,0.4-0.2,0.7-0.4l1.4-0.8l-68.7,1.2l1.2,0.7c0.2,0.1,0.4,0.2,0.6,0.3l0.1,0l64.6-1.2
			L355.6,308.6z"/>
		<path class="st2" d="M314.1,312.9l0,0.8l0.3,0c2.3,0.1,4.5,0.2,6.8,0.2c0.7,0,1.4,0,2.2,0l0.5,0c2.8-0.1,5.7-0.2,8.6-0.5l0.3,0
			l0-0.8l-18.3,0.3L314.1,312.9z"/>
		<path class="st2" d="M488.9,250.1c1.2,0,2.9-0.1,3.7-0.6c0.3-0.2,0.5-0.4,0.5-0.7c0.2-1.3,1.7-4.8,1.9-5.2l0.9-2.1l-1.6,1.6
			c0,0-1.9,1.9-2.5,3.7c-0.5,1.4-0.8,1.7-2.9,1.7h-9.7l2.8,0.8C484,249.7,486.7,250.1,488.9,250.1z"/>
		<path class="st2" d="M486.7,315.3l-0.1,0l0.1,0.7l0,0.1l0.1,0c1.3-0.2,32.6-4.2,41.8-6.5c13.7-3.4,15.3-20.4,15.2-34.8
			c-0.1-8.6-0.7-10.5-0.8-10.6l-0.9-2.5l0.1,2.7c0,0.1,0.3,6.8-0.7,14.1c-0.1,0.5-0.1,1.1-0.2,1.7c-1.2,10-3.1,25-13.4,27.4
			C519.1,309.5,488,315.1,486.7,315.3z"/>
		<path class="st2" d="M533.2,266.3c0.6,0.1,1.1,0.1,1.6,0.1c1.7,0,2.8-0.3,3.4-1c0.4-0.5,0.5-1.2,0.2-2.1c-0.1-0.3-0.4-0.6-0.8-0.7
			c-1.9-0.7-7.6,0.1-8.2,0.5v0c-0.6,0.4-0.6,0.8-0.5,1C529.2,265.4,532.8,266.3,533.2,266.3z"/>
		<path class="st2" d="M473.8,277.3c-2.7-7.5-8.8-11-15.5-8.9l-1.5,0.5l1.5,0.3c6.3,1.4,12,6.2,16,13.6l1.2,2.1l-0.4-2.4
			c-0.1-0.5-0.2-0.9-0.2-1.3C474.6,279.9,474.2,278.6,473.8,277.3z"/>
		<path class="st2" d="M503,255c-12.1-0.4-25.8-0.8-46.5,0.2l-0.1,0l0,0.8l0.1,0c10,0.5,18.5,1.2,26,1.8l0,0
			c10.2,0.8,19,1.5,27.7,1.5c17.1,0,32.7-2.7,55.8-9.7l0.1,0l-0.2-0.8l-0.1,0C536.7,256.1,522.6,255.6,503,255z"/>
		<path class="st2" d="M512.5,219c0.3,1,1.4,6,2.4,10.8c1.3,5.8,2.5,11.2,2.7,11.8c0.4,1.2,1.4,1.4,2.5,1.4c0.2,0,0.4,0,0.6,0h0
			c1.1,0,21.4-1.2,23.6-1.6c1.1-0.2,1.6-0.4,1.8-0.8c0.2-0.5-0.2-1-0.6-1.5c-0.8-1-12.6-12.7-17.1-16.3c-0.1-0.1-13.6-9.5-15.8-7.5
			c-0.9,0.8-0.7,1.6-0.1,3.6L512.5,219z"/>
		<path class="st2" d="M361.6,303.9l0.9-1.1l-76.6,1.4l-0.7,0l0.4,0.6c0.1,0.1,0.1,0.2,0.2,0.3l0.1,0.2l75.6-1.4L361.6,303.9z"/>
		<path class="st2" d="M474.9,245.2c0.4,0.5,1.1,0.8,2.1,0.8c0.2,0,0.4,0,0.6,0c2.1-0.2,5.6-0.5,5.6-0.5l0.2,0l0-0.2
			c0-0.1,1.4-5.6,4.9-8.6c3.4-2.9,10.9-2.5,16.8-1.2c2.9,1,2.6,4.5,2,8l-0.1,0.3h6.1c1,0,1.6-0.2,1.9-0.5c0.4-0.4,0.4-0.9,0.3-1.5
			c-0.1-1.1-5.6-24.5-6.3-26.1c-1.6-3.8-14.9-3.1-18.4-2.5c-2.2,0.4-4.6,1.3-6.9,5.4c-3.5,6.6-8.6,20.9-9.3,23.8
			C474.3,243.6,474.4,244.6,474.9,245.2z"/>
		<path class="st2" d="M348,244.8c1.8,0,7.1-0.2,14.4-0.5c20.1-0.7,53.8-1.9,71.4-1.3c11.3,0.4,17.8,0.6,21.8,0.8
			c4.6,0.2,5.8,0.2,7,0.2c0.2,0,0.5,0,0.7,0c1.7,0,2.7,0,4-2.8c0.5-1.2,1.8-4.5,3.3-8.2c2.1-5.5,4.8-12.3,5.9-14.5
			c0.3-0.5,0.5-1,0.8-1.4c0.9-1.6,1.3-2.3,0.9-3c-0.3-0.6-0.9-0.9-2.7-1.1c-13.6-2.6-65.4-3.8-89.6,2.8
			c-9.5,1.6-27.1,15.3-36.6,22.7c-2,1.5-3.7,2.9-4.8,3.7c-1.1,0.8-1.7,1.3-1.6,1.9C343,244.5,343.9,244.8,348,244.8z"/>
		<path class="st2" d="M272.5,291.6c0-2.1-1.7-3.8-3.8-3.8c-2.1,0-3.8,1.7-3.8,3.8s1.7,3.8,3.8,3.8
			C270.8,295.4,272.5,293.7,272.5,291.6z"/>
		<polygon class="st2" points="363,301.5 363.2,300.4 285.2,301.8 284.8,301.8 284.8,302.9 362.7,301.5 		"/>
		<path class="st2" d="M533,319.3c-12.4,1-46.6,6-56.8,7.5l-0.2,0L476,327c-0.1,0.3-0.3,0.6-0.4,0.9l-0.3,0.7l0.8-0.1
			c1.4-0.2,35.1-4.7,42.7-5.3c2.3-0.2,5.3-0.4,8.4-0.7l0.2,0c7.2-0.6,15.3-1.3,18.5-1.3l6,0.9l0.1,0.1l3.5-0.3l-0.5-0.6
			C552.2,318.3,545.4,318.3,533,319.3z"/>
		<path class="st2" d="M356.4,324.1c-4.6-0.8-37-0.4-54.5-0.2c-4.5,0.1-7.7,0.1-8.9,0.1c-6,0-12.1,2.5-12.2,2.5l-1.3,0.5l89.1,0.6
			l-1.4-0.6C367.1,327.2,362.1,325.2,356.4,324.1z"/>
		<path class="st2" d="M408.3,325.1c-1.7,0.2-30.8,1.5-31.1,1.6l-0.5,0l0.3,0.4c0.1,0.1,1.3,1.7,8.6,1.7c1,0,2.2,0,3.4-0.1
			c6.6-0.4,13.3-0.6,19-0.7c1.4,0,1.7-0.2,2-1.1c0.1-0.4,0.3-0.9,0-1.3C409.7,325.1,409.2,325,408.3,325.1z"/>
		<path class="st2" d="M454.4,275.8c-2.5,0-5,0.6-7.3,1.9l-0.1,0.1l0.3,0.7l0.1,0c1.6-0.6,3.3-1,5-1c10.9,0,19.7,13.2,19.7,29.4
			c0,16.2-8.9,29.4-19.7,29.4c-1.7,0-3.4-0.3-5-1l-0.1,0l-0.3,0.7l0.1,0.1c2.3,1.3,4.8,1.9,7.3,1.9c11.7,0,21.2-14,21.2-31.1
			S466.1,275.8,454.4,275.8z"/>
		<path class="st2" d="M558.5,297.1c1.2-17.2,7.5-31.3,14-31.3c0.1,0,0.2,0,0.3,0c3.2,0.2,6,3.8,7.9,10.2l0,0.1l0.8-0.2l0-0.1
			c-1.9-8.7-5.3-13.9-9.6-14.2c-0.1,0-0.2,0-0.3,0c-7,0-13.6,14.1-14.9,31.8c-0.6,8.1,0.1,16,1.8,22.1l0,0.1l0.8-0.2l0-0.1
			C558.4,309.9,558,303.6,558.5,297.1z"/>
		<path class="st2" d="M572.9,274.3c-1.3,0-2.6,0.7-3.9,1.9l-1.9,2l2.4-1.4c0.6-0.3,1.1-0.5,1.7-0.5c4.9,0,8.9,11.2,8.9,24.9
			c0,13.7-4,24.9-8.9,24.9c-0.6,0-1.1-0.2-1.7-0.5l-2.4-1.3l1.9,2c1.2,1.3,2.5,1.9,3.9,1.9c5.6,0,10.2-12.1,10.2-27
			C583.1,286.2,578.7,274.3,572.9,274.3z"/>
		<path class="st2" d="M451.4,266c3.2-2.2,6.9-2.8,10.8-1.8l0.1,0l0.2-0.8l-0.1,0c-4.7-1.7-9.1-1.3-13.1,1.1
			c-13.5,8.2-19.8,38.4-21.2,53.4l-5.4,0.7c-5.7,0.7-33.3,1.8-33.6,1.8l-3.5,0.1l3.5,0.7c1.9,0.4,5.9,0.6,11.7,0.6
			c12.4,0,29.5-0.8,31.4-0.9l0.4,0l0.1-0.5C433.9,309.2,437.7,275.1,451.4,266z"/>
		<polygon class="st2" points="364.2,291.2 285.1,292.6 284.7,292.6 284.7,293.7 363.8,292.3 364.2,292.3 		"/>
		<path class="st2" d="M285.2,288.3c0,0.1,0,0.2-0.1,0.3l-0.1,0.5l79-1.4l-0.1-0.5c0-0.1-0.1-0.2-0.1-0.3l-0.1-0.3l-78.2,1.4l-0.3,0
			L285.2,288.3z"/>
		<polygon class="st2" points="363.8,296.9 363.9,295.8 285,297.2 284.6,297.2 284.6,298.3 363.6,296.9 		"/>
		<path class="st2" d="M363.5,298.9c0-0.1,0-0.2,0-0.3l0.1-0.5l-78.6,1.4l-0.4,0l0,0.4c0,0.1,0,0.2,0,0.3l0,0.4l78.4-1.4l0.3,0
			L363.5,298.9z"/>
		<polygon class="st2" points="364.1,293.5 285,294.9 284.6,294.9 284.6,296 363.7,294.6 364,294.6 		"/>
		<polygon class="st2" points="360.5,282 288.5,283.3 288.4,283.3 287.4,284.4 360.7,283.1 361.6,283.1 		"/>
		<path class="st2" d="M286.4,285.6l-0.9,1.1l77.1-1.4l0.7,0l-0.4-0.6c-0.1-0.1-0.1-0.2-0.2-0.3l-0.1-0.2l-76,1.4L286.4,285.6z"/>
		<path class="st2" d="M364.3,289.6c0-0.1,0-0.2,0-0.3l0-0.4l-79,1.4l-0.3,0l-0.1,1.1l79.1-1.4l0.4,0L364.3,289.6z"/>
		<path class="st1" d="M588.8,304.7c-0.1-0.1-0.4-0.1-0.7-0.1c-0.6,0-1.1-0.3-1.5-0.9l-0.1-0.1l0-0.1c0.2-1.3,0.3-2.8,0.4-4.5
			c0.5-7.6-0.1-38.2-7-45.7l0-0.1c-1.6-2.2-6.2-5-11.4-7c-3.9-1.5-7.9-2.3-11.9-2.7c0,0,0,0,0,0l0-0.6c2.1-0.3,4.1-0.4,6.2-0.1
			c-0.4-0.4-0.8-0.9-1.3-1.4c-6.9-7.6-22.9-25.4-39.1-30.2c-12.7-3.8-39.6-5.9-64.9-6c0,0,0.1-0.7,0.4-1.7c0.4-1.9,0.7-2.6,0.4-3.1
			c-0.2-0.3-0.5-0.4-1-0.4h-21.7c-1.1,0-2.2,0.8-2.6,2l-0.8,2.8c-0.1,0.2-0.3,1.1-0.3,1.3c-0.2,0-0.4,0-0.6,0
			c-23.2,1.4-43.9,4.5-53.5,9.3c-9.9,5-27.1,16.3-35.3,23.8l-0.4,0.4l-0.1-0.6c0,0-0.2-1-1.5-1.2c-1.8-0.2-6.7,0-9.8,1.9
			c-3.1,1.9-2.4,6.7-2.4,6.8l0,0.3l-0.3,0.1c0,0-4.1,1-8.8,2.3c-0.1,0-10.8,3-21.3,9.5c-10.4,6.5-10.4,15.8-10.4,15.9l0,2.2
			l-0.7-2.1c0-0.1-3.7-10.9,10.5-18.9c-5.1,0.5-22.5,3-28.6,13.9l-0.1,0.1c0,0-4.4,4.2-5.2,23.3c-0.4,8.2-0.5,14-0.7,18.2
			c-0.2,5.7-0.2,8.3-0.6,9.8c-0.6,2.2-0.3,2.7,0.9,4.5l0.3,0.5c1.3,2.2,1.6,2.6,1.6,2.6l0.1,0.1l-0.1,0.2c-0.2,0.4-0.2,1,0,1.4
			c0.2,0.4,0.7,0.7,1.2,0.7l3.2,0l0.1,0.1c5.7,8.6,17.4,13.7,30.5,13.3c11.9-0.3,22.1-5.3,26.6-12.9l0.1-0.1l0.2,0l87.5,0.6l0.1,0.1
			c4.9,8.3,12,13.1,19.4,13.1h20.9c8,0,15.5-5.4,20.4-14.9l0.1-0.1l0.2,0c22.6-1.1,45.5-3,67.9-5.6l0.2,0l0.1,0.2
			c2.3,6.3,5.3,9.8,8.5,9.8h20.7c5.2,0,10-9.7,11.5-23.5l0-0.3l3.4,0c0.5,0,0.8,0,0.9-0.1c0.2-0.2,0.2-1.2,0.2-2.8
			c0-0.9,0-1.6,0.1-2.1C588.8,305.3,588.8,304.8,588.8,304.7z M565.9,248.9l0.1,0l0.2,0.8l-0.1,0c-23.1,7-38.8,9.7-55.8,9.7
			c-8.7,0-17.5-0.7-27.7-1.5l0,0c-7.5-0.6-16-1.3-26-1.8l-0.1,0l0-0.8l0.1,0c20.7-1.1,34.4-0.6,46.5-0.2
			C522.6,255.6,536.7,256.1,565.9,248.9z M541.4,280.1c0.1-0.6,0.1-1.2,0.2-1.7c0.9-7.2,0.7-14,0.7-14.1l-0.1-2.7l0.9,2.5
			c0,0.1,0.7,2,0.8,10.6c0.1,14.4-1.5,31.4-15.2,34.8c-9.2,2.3-40.5,6.3-41.8,6.5l-0.1,0l0-0.1l-0.1-0.7l0.1,0
			c1.3-0.2,32.4-5.8,41.3-7.8C538.3,305.2,540.2,290.1,541.4,280.1z M529.5,263.1L529.5,263.1c0.5-0.3,6.2-1.2,8.2-0.5
			c0.4,0.2,0.7,0.4,0.8,0.7c0.3,0.8,0.2,1.5-0.2,2.1c-0.6,0.7-1.7,1-3.4,1c-0.5,0-1.1,0-1.6-0.1c-0.5-0.1-4-1-4.3-2.2
			C528.9,263.9,528.9,263.4,529.5,263.1z M475.5,284.9l-1.2-2.1c-4.1-7.4-9.7-12.2-16-13.6l-1.5-0.3l1.5-0.5
			c6.7-2.1,12.8,1.4,15.5,8.9c0.4,1.3,0.8,2.6,1.1,3.9c0.1,0.4,0.2,0.8,0.2,1.3L475.5,284.9z M479.2,248.3h9.7
			c2.2,0,2.4-0.3,2.9-1.7c0.6-1.7,2.5-3.6,2.5-3.7l1.6-1.6l-0.9,2.1c-0.2,0.4-1.7,3.9-1.9,5.2c0,0.3-0.2,0.5-0.5,0.7
			c-0.8,0.5-2.4,0.6-3.7,0.6c-2.3,0-5-0.4-6.9-0.9L479.2,248.3z M512.6,215.3c2.2-2,15.7,7.4,15.8,7.5c4.6,3.6,16.3,15.3,17.1,16.3
			c0.4,0.5,0.8,1,0.6,1.5c-0.2,0.4-0.7,0.7-1.8,0.8c-2.2,0.3-22.5,1.5-23.6,1.6h0c-0.2,0-0.4,0-0.6,0c-1.1,0-2.1-0.2-2.5-1.4
			c-0.2-0.6-1.4-6.1-2.7-11.8c-1.1-4.8-2.2-9.8-2.4-10.8l0-0.2C511.9,216.9,511.7,216.1,512.6,215.3z M490.8,213
			c3.4-0.6,16.8-1.3,18.4,2.5c0.8,1.6,6.3,25,6.3,26.1c0,0.5,0,1.1-0.3,1.5c-0.3,0.4-0.9,0.5-1.9,0.5h-6.1l0.1-0.3
			c0.6-3.5,0.9-7-2-8c-5.9-1.3-13.4-1.7-16.8,1.2c-3.5,3-4.9,8.6-4.9,8.6l0,0.2l-0.2,0c0,0-3.5,0.3-5.6,0.5c-0.2,0-0.4,0-0.6,0
			c-1,0-1.7-0.3-2.1-0.8c-0.5-0.6-0.6-1.6-0.3-3c0.8-2.9,5.8-17.2,9.3-23.8C486.2,214.3,488.6,213.4,490.8,213z M344.3,242
			c1.2-0.9,2.9-2.2,4.8-3.7c9.5-7.4,27.1-21.2,36.6-22.7c24.2-6.6,76-5.4,89.6-2.8c1.8,0.2,2.4,0.6,2.7,1.1c0.4,0.7,0,1.4-0.9,3
			c-0.2,0.4-0.5,0.9-0.8,1.4c-1.1,2.2-3.8,9-5.9,14.5c-1.5,3.8-2.7,7-3.3,8.2c-1.3,2.8-2.2,2.8-4,2.8c-0.2,0-0.4,0-0.7,0
			c-1.2,0-2.4,0-7-0.2c-4-0.1-10.5-0.4-21.8-0.8c-17.7-0.6-51.3,0.6-71.4,1.3c-7.3,0.3-12.7,0.5-14.4,0.5c-4.1,0-5.1-0.3-5.2-0.9
			C342.6,243.3,343.2,242.8,344.3,242z M303.5,261.5c0.2,0,19.8-2.6,40.4-2.1c20.6,0.4,33.2,0.8,33.3,0.8l0.3,0l0,0.3
			c0,0.3-0.4,2.6-8.6,2.6h0c-1.9,0-4.3,0-7.1,0c-9.4,0-22.3,0-32.6,0.3l-3.4,0.1c-4.3,0.1-8,0.3-11.2,0.3c-5.6,0-9.4-0.4-11.2-1.8
			l-0.6-0.4L303.5,261.5z M277.2,325.5l-11.7-1.1l-1.6-2.7l13.4,1.8L277.2,325.5z M264.9,291.6c0-2.1,1.7-3.8,3.8-3.8
			c2.1,0,3.8,1.7,3.8,3.8s-1.7,3.8-3.8,3.8C266.6,295.4,264.9,293.7,264.9,291.6z M277.4,287.3c-3.1,0-9.7-1.2-11.4-1.6
			c-0.3-0.1-0.5-0.3-0.7-0.6c-1.1-2.1,1.3-9.8,2.6-13.2l0.1-0.3l21.2,7.5c4.1,1.9,66.9-0.8,81.5-2.4l54.6-6.6l-0.1,0.4
			c-0.1,0.5-3.1,12.8-3.5,13.9c-0.2,0.7-5.6,1.2-34,1.6c-2.7,0-4.8,0.1-5.8,0.1c-4.2,0.1-11.2-4.3-14-6.3c-0.8,0.1-1.6,0.2-2.4,0.3
			c-2.5,0.3-5.1,0.6-7.4,0.5l-65,1.2c-1.1,0-2,0-2.8-0.1c-0.6-0.1-1.1-0.2-1.5-0.3l-3.5-0.7c-1.4,1.7-5.5,6.1-6.5,6.3
			C278.3,287.2,277.9,287.3,277.4,287.3z M418.7,296.6c0,3.5-2.9,6.4-6.4,6.4c-3.5,0-6.4-2.9-6.4-6.4c0-3.5,2.9-6.4,6.4-6.4
			C415.9,290.2,418.7,293.1,418.7,296.6z M299.6,311.9L299.6,311.9c-0.5-0.1-1.1-0.2-1.7-0.3l-3.6-0.7l58-1l-3.6,0.8
			c-0.5,0.1-1.1,0.2-1.6,0.4L299.6,311.9z M332.7,313.3l-0.3,0c-2.9,0.3-5.8,0.4-8.6,0.5l-0.5,0c-0.7,0-1.4,0-2.2,0
			c-2.3,0-4.6-0.1-6.8-0.2l-0.3,0l0-0.8l0.3,0l18.3-0.3L332.7,313.3z M290.9,309.8L290.9,309.8c-0.3-0.1-0.5-0.2-0.7-0.4l-1.2-0.7
			l68.7-1.2l-1.4,0.8c-0.2,0.1-0.4,0.2-0.7,0.4l-0.1,0L290.9,309.8z M287.7,307.5l-0.1-0.1c-0.1-0.1-0.2-0.2-0.3-0.3l-0.6-0.6l0.9,0
			l73-1.3l-0.8,0.7c-0.1,0.1-0.3,0.2-0.4,0.3l-0.1,0.1l-0.1,0L287.7,307.5z M285.8,305.2l-0.1-0.2c-0.1-0.1-0.1-0.2-0.2-0.3
			l-0.4-0.6l0.7,0l76.6-1.4l-0.9,1.1l-0.2,0L285.8,305.2z M284.8,302.9l-0.1-1.1l0.4,0l78.1-1.4l-0.2,1.1l-0.3,0L284.8,302.9z
			 M363.1,299.2l-78.4,1.4l0-0.4c0-0.1,0-0.2,0-0.3l0-0.4l0.4,0l78.6-1.4l-0.1,0.5c0,0.1,0,0.2,0,0.3l-0.1,0.3L363.1,299.2z
			 M284.6,298.3l0-1.1l0.4,0l78.9-1.4l-0.1,1.1l-0.2,0L284.6,298.3z M363.7,294.6l-79.2,1.4l0-1.1l0.4,0l79.1-1.4l-0.1,1.1
			L363.7,294.6z M363.8,292.3l-79.2,1.4l0.1-1.1l0.4,0l79.2-1.4l-0.1,1.1L363.8,292.3z M363.9,290l-79.1,1.4l0.1-1.1l0.3,0l79-1.4
			l0,0.4c0,0.1,0,0.2,0,0.3l0,0.4L363.9,290z M362.6,284.3l0.1,0.2c0.1,0.1,0.2,0.2,0.2,0.3l0.4,0.6l-0.7,0l-77.1,1.4l0.9-1.1l0.2,0
			L362.6,284.3z M287.4,284.4l0.9-1.1l0.2,0l71.9-1.3l1.1,1.1l-0.9,0L287.4,284.4z M285.6,288l78.2-1.4l0.1,0.3
			c0,0.1,0.1,0.2,0.1,0.3l0.1,0.5l-79,1.4l0.1-0.5c0-0.1,0-0.2,0.1-0.3l0.1-0.4L285.6,288z M279.5,327.2l1.3-0.5
			c0.1,0,6.2-2.5,12.2-2.5c1.3,0,4.5,0,8.9-0.1c17.4-0.2,49.9-0.7,54.5,0.2c5.7,1.1,10.7,3,10.8,3l1.4,0.6L279.5,327.2z M410,326.8
			c-0.3,1-0.6,1.1-2,1.1c-5.7,0.1-12.4,0.3-19,0.7c-1.3,0.1-2.4,0.1-3.4,0.1c-7.3,0-8.6-1.6-8.6-1.7l-0.3-0.4l0.5,0
			c0.3,0,29.5-1.4,31.1-1.6c0.9-0.1,1.4,0.1,1.7,0.4C410.3,325.9,410.2,326.5,410,326.8z M432.7,320.4l-0.1,0.5l-0.4,0
			c-1.9,0.1-19,0.9-31.4,0.9c-5.8,0-9.8-0.2-11.7-0.6l-3.5-0.7l3.5-0.1c0.3,0,27.9-1.1,33.6-1.8l5.4-0.7c1.4-15,7.7-45.2,21.2-53.4
			c4-2.4,8.4-2.8,13.1-1.1l0.1,0l-0.2,0.8l-0.1,0c-3.9-1-7.6-0.4-10.8,1.8C437.7,275.1,433.9,309.2,432.7,320.4z M454.4,338
			c-2.5,0-5-0.6-7.3-1.9l-0.1-0.1l0.3-0.7l0.1,0c1.6,0.6,3.3,1,5,1c10.9,0,19.7-13.2,19.7-29.4c0-16.2-8.9-29.4-19.7-29.4
			c-1.7,0-3.4,0.3-5,1l-0.1,0l-0.3-0.7l0.1-0.1c2.3-1.3,4.8-1.9,7.3-1.9c11.7,0,21.2,14,21.2,31.1S466.1,338,454.4,338z
			 M551.9,322.3L551.9,322.3l-6.1-1c-3.2-0.1-11.3,0.6-18.5,1.3l-0.2,0c-3.1,0.3-6.1,0.5-8.4,0.7c-7.6,0.6-41.3,5.1-42.7,5.3
			l-0.8,0.1l0.3-0.7c0.1-0.3,0.3-0.6,0.4-0.9l0.1-0.2l0.2,0c10.2-1.5,44.4-6.5,56.8-7.5c12.4-1,19.1-0.9,21.8,2.1l0.5,0.6
			L551.9,322.3z M558.6,315.6l0-0.1c-1.7-6.2-2.4-14-1.8-22.1c1.2-17.7,7.9-31.8,14.9-31.8c0.1,0,0.2,0,0.3,0
			c4.2,0.3,7.7,5.5,9.6,14.2l0,0.1l-0.8,0.2l0-0.1c-1.9-6.3-4.7-9.9-7.9-10.2c-0.1,0-0.2,0-0.3,0c-6.5,0-12.8,14-14,31.3
			c-0.5,6.5-0.1,12.8,0.9,18.2l0,0.1L558.6,315.6z M572.9,328.3c-1.3,0-2.6-0.7-3.9-1.9l-1.9-2l2.4,1.3c0.6,0.3,1.1,0.5,1.7,0.5
			c4.9,0,8.9-11.2,8.9-24.9c0-13.7-4-24.9-8.9-24.9c-0.6,0-1.1,0.2-1.7,0.5l-2.4,1.4l1.9-2c1.2-1.3,2.5-1.9,3.9-1.9
			c5.7,0,10.2,11.9,10.2,27C583.1,316.2,578.6,328.3,572.9,328.3z"/>
	</g>
</g>
</svg>
